<?xml version="1.0" standalone="no"?>
<!DOCTYPE svg PUBLIC "-//W3C//DTD SVG 20010904//EN"
 "http://www.w3.org/TR/2001/REC-SVG-20010904/DTD/svg10.dtd">
<svg version="1.0" xmlns="http://www.w3.org/2000/svg"
 width="512.000000pt" height="512.000000pt" viewBox="0 0 512.000000 512.000000"
 preserveAspectRatio="xMidYMid meet">

<g transform="translate(0.000000,512.000000) scale(0.100000,-0.100000)"
fill="#000000" stroke="none">
<path d="M2513 4781 c-68 -25 -126 -66 -190 -133 -66 -71 -105 -132 -188 -298
-85 -171 -139 -246 -217 -305 -75 -56 -106 -73 -351 -187 -229 -106 -330 -165
-411 -239 l-62 -57 -29 24 c-222 178 -573 37 -696 -280 -62 -160 -138 -484
-174 -741 -52 -377 -46 -756 15 -941 47 -141 148 -262 268 -321 66 -33 82 -37
152 -37 70 0 87 4 152 37 l74 36 87 -84 c146 -141 326 -249 524 -314 128 -43
220 -59 378 -67 231 -11 290 -32 557 -200 281 -175 573 -301 792 -339 117 -20
291 -20 375 1 139 35 241 106 287 200 24 49 26 63 22 137 -4 78 -21 128 -75
228 -2 3 43 9 99 12 275 17 473 118 554 283 25 51 29 71 29 144 0 73 -4 93
-29 144 -32 65 -109 147 -187 200 l-51 34 29 5 c15 3 55 9 88 12 98 11 237 51
321 92 98 47 208 151 247 233 57 118 74 276 41 378 -48 148 -217 263 -488 331
l-109 28 44 31 c25 16 62 49 83 72 125 139 136 388 25 562 -71 110 -207 199
-356 232 -114 25 -261 19 -716 -29 -468 -49 -640 -65 -645 -61 -1 2 34 52 79
112 219 294 272 573 156 819 -46 97 -130 186 -215 227 -57 28 -79 33 -152 36
-64 2 -98 -2 -137 -17z m215 -182 c83 -41 156 -165 168 -288 8 -87 -19 -213
-66 -309 -23 -46 -90 -148 -150 -227 -60 -79 -125 -173 -145 -210 -51 -90 -97
-225 -134 -387 -40 -180 -71 -240 -175 -343 -130 -129 -247 -175 -452 -175
-97 0 -113 -2 -132 -20 -48 -45 -35 -121 24 -146 45 -19 206 -18 302 2 203 41
378 161 496 338 51 78 83 159 107 274 24 119 43 191 71 260 l20 52 62 0 c78 0
299 21 716 67 407 45 632 51 722 17 156 -60 232 -164 232 -320 -1 -174 -109
-254 -431 -318 -104 -21 -158 -26 -290 -26 -233 0 -480 -29 -533 -63 -44 -27
-52 -92 -17 -133 29 -34 56 -35 187 -9 82 17 141 20 425 20 338 0 416 -6 613
-46 222 -45 370 -120 418 -211 19 -36 18 -132 -2 -198 -31 -103 -91 -167 -207
-220 -134 -60 -277 -80 -569 -80 -200 0 -212 1 -314 30 -203 57 -480 101 -719
116 -110 6 -111 6 -143 -21 -25 -21 -32 -34 -32 -63 1 -71 30 -87 170 -96 567
-37 1136 -216 1309 -412 114 -130 26 -275 -205 -339 -75 -21 -299 -31 -384
-17 -53 9 -87 24 -185 83 -152 92 -320 173 -533 256 -193 75 -233 81 -268 40
-29 -34 -32 -86 -6 -115 9 -12 91 -49 189 -87 349 -133 597 -269 712 -390 120
-127 154 -240 91 -304 -50 -49 -129 -74 -257 -79 -248 -9 -554 99 -912 323
-290 182 -368 210 -614 226 -87 5 -190 16 -229 24 -318 67 -629 280 -745 510
-35 68 -51 128 -62 227 -10 90 -8 127 15 275 6 38 3 45 -24 73 -22 22 -40 30
-64 30 -66 -1 -91 -45 -107 -192 -15 -131 0 -275 40 -388 40 -114 40 -120 0
-144 -103 -61 -235 11 -311 169 -111 231 -64 955 96 1483 43 141 73 201 131
263 109 117 271 135 357 40 16 -18 17 -26 7 -65 -26 -104 1 -166 71 -166 52 0
75 23 98 98 55 185 127 242 540 431 358 165 455 257 616 583 78 160 138 240
214 286 66 39 131 43 198 11z"/>
</g>
</svg>
