<?xml version="1.0" standalone="no"?>
<!DOCTYPE svg PUBLIC "-//W3C//DTD SVG 20010904//EN"
 "http://www.w3.org/TR/2001/REC-SVG-20010904/DTD/svg10.dtd">
<svg version="1.0" xmlns="http://www.w3.org/2000/svg"
 width="512.000000pt" height="512.000000pt" viewBox="0 0 512.000000 512.000000"
 preserveAspectRatio="xMidYMid meet">

<g transform="translate(0.000000,512.000000) scale(0.100000,-0.100000)"
fill="#000000" stroke="none">
<path d="M1841 4385 c-325 -59 -540 -297 -541 -597 l0 -68 -42 0 c-135 -1
-313 -75 -408 -170 -65 -65 -122 -169 -140 -257 -7 -34 -10 -97 -7 -153 5
-108 29 -181 83 -260 39 -57 40 -62 17 -81 -26 -22 -78 -109 -103 -174 -28
-73 -34 -239 -11 -320 31 -112 107 -234 187 -303 42 -35 44 -40 34 -66 -5 -15
-15 -59 -21 -97 -35 -229 107 -463 333 -550 54 -20 57 -23 50 -48 -14 -52 -6
-174 17 -241 41 -122 124 -206 250 -251 64 -23 73 -24 391 -24 343 1 475 10
725 50 577 93 947 300 1106 621 39 78 56 103 67 99 228 -87 451 80 546 409 67
230 90 548 66 891 -24 326 -91 545 -208 675 -112 125 -270 160 -408 90 -21
-11 -41 -20 -44 -20 -4 0 -27 33 -53 73 -116 184 -334 333 -592 406 -45 13
-195 79 -345 151 -283 138 -419 189 -569 214 -113 19 -278 19 -380 1z m339
-175 c127 -20 285 -79 529 -200 154 -77 284 -133 367 -161 283 -92 446 -212
533 -391 51 -105 62 -166 59 -323 -3 -155 3 -176 53 -194 23 -8 38 -7 64 3 55
23 60 42 61 235 l2 175 26 23 c93 79 212 29 286 -121 64 -130 96 -318 106
-616 14 -410 -49 -751 -166 -899 -49 -62 -115 -96 -168 -86 -74 13 -78 21 -86
147 -12 204 -29 243 -107 243 -33 0 -46 -6 -66 -29 -23 -28 -24 -33 -16 -100
12 -101 9 -242 -6 -306 -7 -30 -31 -93 -53 -138 -181 -371 -780 -571 -1708
-572 -233 0 -292 9 -354 51 -89 61 -119 211 -63 318 33 64 34 102 4 137 -19
22 -34 27 -97 34 -91 9 -156 38 -216 97 -104 100 -127 238 -65 385 40 96 36
119 -35 166 -148 99 -226 245 -210 395 9 92 46 161 127 238 60 58 69 71 69
103 0 30 -9 44 -58 93 -80 80 -105 136 -110 243 -5 106 19 176 83 247 142 159
409 177 786 54 96 -31 133 -39 150 -32 65 25 84 105 35 148 -32 27 -243 96
-368 120 l-91 17 5 87 c11 194 131 337 328 393 30 8 69 17 85 19 62 8 222 6
285 -3z"/>
</g>
</svg>
