<?xml version="1.0" standalone="no"?>
<!DOCTYPE svg PUBLIC "-//W3C//DTD SVG 20010904//EN"
 "http://www.w3.org/TR/2001/REC-SVG-20010904/DTD/svg10.dtd">
<svg version="1.0" xmlns="http://www.w3.org/2000/svg"
 width="683.000000pt" height="683.000000pt" viewBox="0 0 683.000000 683.000000"
 preserveAspectRatio="xMidYMid meet">

<g transform="translate(0.000000,683.000000) scale(0.100000,-0.100000)"
fill="#000000" stroke="none">
<path d="M3865 5854 c-268 -18 -552 -53 -754 -95 -467 -96 -819 -255 -1051
-476 -110 -104 -181 -197 -250 -328 -29 -55 -59 -105 -66 -111 -10 -8 -28 -7
-66 3 -82 22 -209 13 -281 -20 -270 -124 -429 -456 -482 -1011 -28 -295 -14
-756 30 -1011 68 -386 200 -627 396 -720 142 -67 246 -68 385 -5 73 33 59 41
150 -90 83 -119 201 -234 322 -314 125 -82 222 -128 402 -191 140 -49 290
-114 590 -255 351 -164 521 -225 700 -251 106 -15 382 -15 473 0 234 39 447
161 575 329 100 132 145 264 158 461 l7 98 91 6 c205 13 445 135 554 281 57
78 119 206 132 275 14 75 12 264 -4 338 -13 60 -58 161 -113 254 l-27 46 37
43 c20 23 59 88 87 144 40 79 53 117 60 176 12 96 12 200 1 271 -24 144 -124
325 -244 441 l-69 67 21 89 c80 342 -93 669 -431 812 l-60 25 -2 145 c-2 127
-6 154 -28 218 -59 165 -157 262 -337 331 l-66 25 -395 2 c-217 0 -417 0 -445
-2z m701 -235 c185 -18 275 -78 319 -210 25 -73 16 -194 -19 -272 -67 -150
-35 -205 134 -232 161 -26 263 -88 341 -207 79 -122 88 -251 28 -415 -57 -158
-55 -167 66 -258 89 -68 150 -137 198 -225 46 -85 61 -156 55 -268 -6 -125
-44 -202 -168 -335 -122 -132 -122 -139 12 -290 32 -35 70 -90 85 -123 26 -55
28 -67 28 -194 0 -126 -2 -139 -27 -193 -39 -82 -135 -179 -220 -222 -109 -54
-193 -68 -376 -62 -174 5 -255 21 -535 101 -87 25 -167 46 -179 46 -26 0 -85
-59 -93 -93 -10 -36 1 -74 28 -101 43 -43 321 -135 521 -172 l98 -19 -6 -90
c-17 -252 -123 -410 -342 -511 -92 -43 -186 -63 -333 -70 -262 -14 -438 32
-826 214 -88 41 -225 105 -305 142 -80 37 -226 98 -325 135 -415 156 -585 282
-705 524 -64 129 -71 163 -79 406 -4 121 -11 228 -16 238 -10 24 -57 47 -97
47 -43 0 -96 -33 -110 -68 -6 -15 -13 -128 -17 -261 l-6 -233 -40 -29 c-60
-44 -132 -52 -193 -24 -122 57 -207 201 -260 445 -29 130 -39 213 -53 440 -19
322 -3 644 47 885 58 287 143 454 268 525 77 45 186 35 215 -18 6 -11 17 -91
26 -178 20 -200 35 -258 75 -279 16 -8 48 -15 71 -15 35 0 47 6 74 35 l33 34
-5 213 c-6 241 0 289 51 413 91 224 289 413 569 545 338 158 848 258 1427 279
320 12 448 12 566 0z"/>
</g>
</svg>
