<?xml version="1.0" standalone="no"?>
<!DOCTYPE svg PUBLIC "-//W3C//DTD SVG 20010904//EN"
 "http://www.w3.org/TR/2001/REC-SVG-20010904/DTD/svg10.dtd">
<svg version="1.0" xmlns="http://www.w3.org/2000/svg"
 width="512.000000pt" height="512.000000pt" viewBox="0 0 512.000000 512.000000"
 preserveAspectRatio="xMidYMid meet">

<g transform="translate(0.000000,512.000000) scale(0.100000,-0.100000)"
fill="#000000" stroke="none">
<path d="M2202 4399 c-131 -12 -375 -56 -521 -95 -211 -55 -361 -118 -506
-212 -69 -46 -232 -199 -272 -256 l-21 -30 -32 28 c-69 58 -128 80 -215 80
-69 1 -89 -3 -146 -30 -256 -122 -408 -535 -450 -1224 -28 -469 46 -817 212
-995 87 -93 147 -120 264 -120 79 0 97 4 148 29 32 15 59 26 61 25 1 -2 24
-37 50 -77 225 -342 675 -582 1093 -582 l115 0 62 -47 c71 -53 214 -124 301
-148 91 -25 314 -32 395 -11 187 47 328 167 377 322 l16 51 78 17 c151 32 301
131 372 243 92 145 89 337 -8 497 -19 32 -34 60 -33 61 2 1 68 -5 148 -12 223
-21 648 -20 795 1 241 35 363 79 459 167 196 179 184 526 -24 738 -123 125
-282 176 -615 199 l-100 7 59 28 c153 71 300 196 359 305 121 224 18 530 -221
655 -267 141 -742 118 -1280 -61 l-112 -38 -40 81 c-144 299 -407 437 -768
404z m263 -195 c173 -42 286 -147 369 -342 45 -107 94 -176 240 -337 181 -199
186 -216 85 -309 -152 -141 -364 -186 -523 -112 -154 71 -318 267 -341 409
-10 55 -44 87 -93 87 -61 0 -85 -33 -88 -118 -2 -86 -11 -125 -41 -187 -70
-137 -202 -227 -375 -254 -48 -8 -68 -17 -85 -36 -33 -37 -30 -80 8 -117 29
-30 32 -31 98 -24 186 17 377 130 477 284 20 31 39 59 41 61 2 3 11 -6 20 -20
65 -93 195 -198 308 -250 50 -23 65 -33 56 -42 -19 -19 -13 -74 13 -104 l25
-28 133 2 c73 2 273 14 443 28 460 37 617 45 858 45 314 0 499 -25 613 -82
131 -65 220 -247 193 -396 -34 -184 -181 -254 -595 -283 -187 -13 -441 -3
-792 32 l-206 21 -75 45 c-152 93 -344 171 -536 220 -135 33 -358 43 -459 19
-100 -24 -178 -69 -247 -145 -129 -141 -167 -289 -115 -445 l27 -79 -50 -51
c-128 -130 -145 -311 -48 -508 l33 -68 -34 0 c-60 0 -233 40 -326 76 -50 19
-127 55 -171 81 -399 229 -587 597 -505 991 12 62 16 102 10 117 -21 56 -102
74 -144 31 -41 -40 -61 -156 -60 -336 0 -122 5 -170 21 -228 22 -81 21 -83
-44 -116 -69 -35 -149 -13 -209 58 -148 173 -196 601 -128 1148 51 414 170
706 317 777 73 35 128 23 181 -39 33 -40 33 -53 -5 -158 -56 -159 -98 -385
-99 -529 0 -56 2 -63 31 -87 35 -30 58 -32 99 -11 35 18 46 52 55 165 18 227
80 442 171 592 174 286 475 446 1008 538 235 40 340 43 461 14z m1731 -304
c173 -44 265 -135 294 -288 53 -285 -370 -509 -1172 -621 -203 -29 -202 -29
-114 29 157 105 222 220 196 346 -15 71 -67 147 -189 277 -55 60 -101 110
-101 112 0 7 213 73 320 99 310 75 588 91 766 46z m-1587 -1670 c136 -28 235
-62 380 -131 227 -109 389 -237 446 -354 61 -124 40 -250 -55 -339 -138 -129
-345 -151 -610 -65 -189 62 -459 227 -601 368 -93 93 -129 155 -137 231 -6 62
10 107 63 178 47 65 96 100 165 118 71 20 238 17 349 -6z m-325 -841 c199
-134 409 -227 589 -261 79 -15 83 -25 34 -90 -37 -49 -111 -102 -165 -119 -20
-6 -85 -14 -144 -16 -134 -6 -226 12 -341 69 -167 83 -321 280 -334 428 -7 73
15 138 59 175 l30 25 76 -66 c42 -36 130 -102 196 -145z"/>
</g>
</svg>
